<svg width="154" height="51" viewBox="0 0 154 51" fill="none" xmlns="http://www.w3.org/2000/svg">
<path d="M11.19 3.8V22H18.418C20.914 22 22.994 21.116 24.658 19.374C26.348 17.632 27.18 15.474 27.18 12.9C27.18 10.326 26.348 8.168 24.658 6.426C22.994 4.684 20.914 3.8 18.418 3.8H11.19ZM14.778 18.568V7.232H18.418C20.004 7.232 21.278 7.752 22.266 8.818C23.254 9.858 23.748 11.21 23.748 12.9C23.748 14.59 23.254 15.942 22.266 17.008C21.278 18.048 20.004 18.568 18.418 18.568H14.778ZM38.2761 16.02C38.2761 18.178 37.1581 19.244 35.4161 19.244C33.8561 19.244 32.8421 18.308 32.8421 16.566V9H29.4881V16.982C29.4881 18.672 29.9561 19.972 30.8661 20.934C31.8021 21.896 32.9721 22.364 34.4021 22.364C36.1701 22.364 37.4701 21.766 38.2761 20.544V22H41.6301V9H38.2761V16.02ZM50.292 17.736L46.912 9H43.246L48.576 21.584C47.952 23.352 46.964 24.106 45.17 24.08V27.2C48.498 27.382 50.682 25.744 52.034 22L56.766 9H53.178L50.292 17.736ZM65.0181 3.8V22H72.2461C74.7421 22 76.8221 21.116 78.4861 19.374C80.1761 17.632 81.0081 15.474 81.0081 12.9C81.0081 10.326 80.1761 8.168 78.4861 6.426C76.8221 4.684 74.7421 3.8 72.2461 3.8H65.0181ZM68.6061 18.568V7.232H72.2461C73.8321 7.232 75.1061 7.752 76.0941 8.818C77.0821 9.858 77.5761 11.21 77.5761 12.9C77.5761 14.59 77.0821 15.942 76.0941 17.008C75.1061 18.048 73.8321 18.568 72.2461 18.568H68.6061ZM92.1042 16.02C92.1042 18.178 90.9862 19.244 89.2442 19.244C87.6842 19.244 86.6702 18.308 86.6702 16.566V9H83.3162V16.982C83.3162 18.672 83.7842 19.972 84.6942 20.934C85.6302 21.896 86.8002 22.364 88.2302 22.364C89.9982 22.364 91.2982 21.766 92.1042 20.544V22H95.4582V9H92.1042V16.02ZM109.606 20.388C110.932 19.062 111.608 17.424 111.608 15.5C111.608 13.576 110.932 11.964 109.606 10.638C108.28 9.312 106.642 8.636 104.718 8.636C102.794 8.636 101.156 9.312 99.8301 10.638C98.5041 11.964 97.8541 13.576 97.8541 15.5C97.8541 17.424 98.5041 19.062 99.8301 20.388C101.156 21.714 102.794 22.364 104.718 22.364C106.642 22.364 108.28 21.714 109.606 20.388ZM102.196 18.074C101.546 17.398 101.208 16.54 101.208 15.5C101.208 14.46 101.546 13.602 102.196 12.926C102.872 12.25 103.704 11.912 104.718 11.912C105.732 11.912 106.564 12.25 107.24 12.926C107.916 13.602 108.254 14.46 108.254 15.5C108.254 16.54 107.916 17.398 107.24 18.074C106.564 18.75 105.732 19.088 104.718 19.088C103.704 19.088 102.872 18.75 102.196 18.074ZM121.196 8.636C119.428 8.636 118.128 9.234 117.322 10.456V9H113.968V22H117.322V14.98C117.322 12.822 118.44 11.756 120.182 11.756C121.742 11.756 122.756 12.692 122.756 14.434V22H126.11V14.018C126.11 12.328 125.642 11.028 124.706 10.066C123.796 9.104 122.626 8.636 121.196 8.636ZM138.931 10.612C137.943 9.286 136.565 8.636 134.771 8.636C132.951 8.636 131.417 9.286 130.169 10.586C128.921 11.886 128.297 13.446 128.297 15.292C128.297 17.138 128.921 18.724 130.143 20.024C131.391 21.298 132.925 21.948 134.771 21.948C136.565 21.948 137.943 21.298 138.931 19.972V21.376C138.931 23.43 137.631 24.574 135.525 24.574C133.913 24.574 132.769 23.976 132.119 22.754L129.259 24.392C130.403 26.472 132.613 27.564 135.421 27.564C137.293 27.564 138.879 27.044 140.205 25.978C141.531 24.912 142.207 23.378 142.207 21.376V9H138.931V10.612ZM138.931 15.292C138.931 17.372 137.397 18.854 135.291 18.854C133.185 18.854 131.651 17.372 131.651 15.292C131.651 14.278 131.989 13.42 132.665 12.77C133.367 12.094 134.225 11.756 135.291 11.756C136.357 11.756 137.215 12.094 137.891 12.77C138.593 13.42 138.931 14.278 138.931 15.292Z" fill="white"/>
<path d="M8.33 46L6.104 42.192C7.266 41.73 8.05 40.596 8.05 39.35C8.05 38.468 7.742 37.726 7.126 37.124C6.524 36.508 5.782 36.2 4.9 36.2H0.98V46H2.59V42.43H4.494L6.566 46H8.33ZM4.9 37.712C5.754 37.712 6.44 38.44 6.44 39.35C6.44 40.26 5.754 40.988 4.9 40.988H2.59V37.712H4.9ZM16.2299 43.144C16.2719 42.878 16.2859 42.668 16.2859 42.514C16.2859 41.492 15.9499 40.61 15.2919 39.896C14.6339 39.182 13.7939 38.818 12.7719 38.818C11.6939 38.818 10.7979 39.168 10.1119 39.882C9.42594 40.582 9.07594 41.45 9.07594 42.5C9.07594 43.564 9.42594 44.446 10.1259 45.146C10.8259 45.832 11.7499 46.182 12.8839 46.182C14.2419 46.182 15.2639 45.678 15.9499 44.656L14.7039 43.928C14.2979 44.502 13.6959 44.796 12.8979 44.796C11.7359 44.796 10.8819 44.208 10.6579 43.144H16.2299ZM10.6439 41.912C10.8539 40.848 11.6379 40.19 12.7579 40.19C13.7519 40.19 14.5499 40.778 14.7599 41.912H10.6439ZM23.1194 39.994C22.5454 39.21 21.7334 38.818 20.6694 38.818C19.7034 38.818 18.8914 39.168 18.2054 39.882C17.5194 40.596 17.1834 41.464 17.1834 42.5C17.1834 43.522 17.5194 44.404 18.2054 45.118C18.8914 45.832 19.7034 46.182 20.6694 46.182C21.7334 46.182 22.5454 45.79 23.1194 44.992V46H24.6314V39H23.1194V39.994ZM19.3254 44.11C18.9054 43.676 18.6954 43.144 18.6954 42.5C18.6954 41.856 18.9054 41.324 19.3254 40.904C19.7454 40.47 20.2774 40.26 20.9074 40.26C21.5374 40.26 22.0694 40.47 22.4894 40.904C22.9094 41.324 23.1194 41.856 23.1194 42.5C23.1194 43.144 22.9094 43.676 22.4894 44.11C22.0694 44.53 21.5374 44.74 20.9074 44.74C20.2774 44.74 19.7454 44.53 19.3254 44.11ZM29.6977 46.182C31.0557 46.182 32.2457 45.482 32.8477 44.362L31.5457 43.62C31.2097 44.278 30.5097 44.698 29.6837 44.698C29.0677 44.698 28.5497 44.488 28.1297 44.068C27.7237 43.648 27.5137 43.13 27.5137 42.5C27.5137 41.87 27.7237 41.352 28.1297 40.932C28.5497 40.512 29.0677 40.302 29.6837 40.302C30.5237 40.302 31.1957 40.708 31.5177 41.38L32.8197 40.624C32.2597 39.518 31.0557 38.818 29.6977 38.818C28.6477 38.818 27.7657 39.168 27.0517 39.882C26.3517 40.582 26.0017 41.45 26.0017 42.5C26.0017 43.536 26.3517 44.404 27.0517 45.118C27.7657 45.832 28.6477 46.182 29.6977 46.182ZM37.8466 39H36.1106V37.04L34.5986 37.488V39H33.3106V40.456H34.5986V43.816C34.5986 45.65 35.5366 46.28 37.8466 46V44.642C36.6986 44.698 36.1106 44.712 36.1106 43.816V40.456H37.8466V39ZM48.7643 42.85L44.1443 36.2H42.8843V46H44.4943V39.35L49.1143 46H50.3743V36.2H48.7643V42.85ZM57.7776 39.994C57.2036 39.21 56.3916 38.818 55.3276 38.818C54.3616 38.818 53.5496 39.168 52.8636 39.882C52.1776 40.596 51.8416 41.464 51.8416 42.5C51.8416 43.522 52.1776 44.404 52.8636 45.118C53.5496 45.832 54.3616 46.182 55.3276 46.182C56.3916 46.182 57.2036 45.79 57.7776 44.992V46H59.2896V39H57.7776V39.994ZM53.9836 44.11C53.5636 43.676 53.3536 43.144 53.3536 42.5C53.3536 41.856 53.5636 41.324 53.9836 40.904C54.4036 40.47 54.9356 40.26 55.5656 40.26C56.1956 40.26 56.7276 40.47 57.1476 40.904C57.5676 41.324 57.7776 41.856 57.7776 42.5C57.7776 43.144 57.5676 43.676 57.1476 44.11C56.7276 44.53 56.1956 44.74 55.5656 44.74C54.9356 44.74 54.4036 44.53 53.9836 44.11ZM64.9579 39H63.2219V37.04L61.7099 37.488V39H60.4219V40.456H61.7099V43.816C61.7099 45.65 62.6479 46.28 64.9579 46V44.642C63.8099 44.698 63.2219 44.712 63.2219 43.816V40.456H64.9579V39ZM67.8116 37.908C68.1896 37.516 68.1896 36.956 67.8256 36.578C67.4476 36.2 66.8596 36.2 66.4816 36.578C66.1176 36.956 66.1176 37.516 66.4816 37.908C66.8736 38.272 67.4336 38.272 67.8116 37.908ZM67.9096 46V39H66.3976V46H67.9096ZM72.4652 44.32L70.5052 39H68.8532L71.5832 46H73.3332L76.0632 39H74.4112L72.4652 44.32ZM83.7827 43.144C83.8247 42.878 83.8387 42.668 83.8387 42.514C83.8387 41.492 83.5027 40.61 82.8447 39.896C82.1867 39.182 81.3467 38.818 80.3247 38.818C79.2467 38.818 78.3507 39.168 77.6647 39.882C76.9787 40.582 76.6287 41.45 76.6287 42.5C76.6287 43.564 76.9787 44.446 77.6787 45.146C78.3787 45.832 79.3027 46.182 80.4367 46.182C81.7947 46.182 82.8167 45.678 83.5027 44.656L82.2567 43.928C81.8507 44.502 81.2487 44.796 80.4507 44.796C79.2887 44.796 78.4347 44.208 78.2107 43.144H83.7827ZM78.1967 41.912C78.4067 40.848 79.1907 40.19 80.3107 40.19C81.3047 40.19 82.1027 40.778 82.3127 41.912H78.1967ZM94.2131 39.994C93.6391 39.21 92.8271 38.818 91.7631 38.818C90.7971 38.818 89.9851 39.168 89.2991 39.882C88.6131 40.596 88.2771 41.464 88.2771 42.5C88.2771 43.522 88.6131 44.404 89.2991 45.118C89.9851 45.832 90.7971 46.182 91.7631 46.182C92.8271 46.182 93.6391 45.79 94.2131 44.992V46H95.7251V36.2H94.2131V39.994ZM90.4191 44.11C89.9991 43.676 89.7891 43.144 89.7891 42.5C89.7891 41.856 89.9991 41.324 90.4191 40.904C90.8391 40.47 91.3711 40.26 92.0011 40.26C92.6311 40.26 93.1631 40.47 93.5831 40.904C94.0031 41.324 94.2131 41.856 94.2131 42.5C94.2131 43.144 94.0031 43.676 93.5831 44.11C93.1631 44.53 92.6311 44.74 92.0011 44.74C91.3711 44.74 90.8391 44.53 90.4191 44.11ZM104.249 43.144C104.291 42.878 104.305 42.668 104.305 42.514C104.305 41.492 103.969 40.61 103.311 39.896C102.653 39.182 101.813 38.818 100.791 38.818C99.7135 38.818 98.8175 39.168 98.1315 39.882C97.4455 40.582 97.0955 41.45 97.0955 42.5C97.0955 43.564 97.4455 44.446 98.1455 45.146C98.8455 45.832 99.7695 46.182 100.903 46.182C102.261 46.182 103.283 45.678 103.969 44.656L102.723 43.928C102.317 44.502 101.715 44.796 100.917 44.796C99.7555 44.796 98.9015 44.208 98.6775 43.144H104.249ZM98.6635 41.912C98.8735 40.848 99.6575 40.19 100.777 40.19C101.771 40.19 102.569 40.778 102.779 41.912H98.6635ZM108.162 44.32L106.202 39H104.55L107.28 46H109.03L111.76 39H110.108L108.162 44.32ZM119.48 43.144C119.522 42.878 119.536 42.668 119.536 42.514C119.536 41.492 119.2 40.61 118.542 39.896C117.884 39.182 117.044 38.818 116.022 38.818C114.944 38.818 114.048 39.168 113.362 39.882C112.676 40.582 112.326 41.45 112.326 42.5C112.326 43.564 112.676 44.446 113.376 45.146C114.076 45.832 115 46.182 116.134 46.182C117.492 46.182 118.514 45.678 119.2 44.656L117.954 43.928C117.548 44.502 116.946 44.796 116.148 44.796C114.986 44.796 114.132 44.208 113.908 43.144H119.48ZM113.894 41.912C114.104 40.848 114.888 40.19 116.008 40.19C117.002 40.19 117.8 40.778 118.01 41.912H113.894ZM122.378 46V35.78H120.866V46H122.378ZM127.438 46.182C128.474 46.182 129.342 45.832 130.056 45.118C130.77 44.404 131.134 43.536 131.134 42.5C131.134 41.464 130.77 40.596 130.056 39.882C129.342 39.168 128.474 38.818 127.438 38.818C126.416 38.818 125.534 39.168 124.82 39.882C124.106 40.596 123.742 41.464 123.742 42.5C123.742 43.536 124.106 44.404 124.82 45.118C125.534 45.832 126.416 46.182 127.438 46.182ZM125.884 44.082C125.464 43.662 125.254 43.13 125.254 42.5C125.254 41.87 125.464 41.338 125.884 40.918C126.304 40.498 126.822 40.288 127.438 40.288C128.054 40.288 128.572 40.498 128.992 40.918C129.412 41.338 129.622 41.87 129.622 42.5C129.622 43.13 129.412 43.662 128.992 44.082C128.572 44.502 128.054 44.712 127.438 44.712C126.822 44.712 126.304 44.502 125.884 44.082ZM136.463 38.818C135.399 38.818 134.587 39.21 134.013 40.008V39H132.501V48.8H134.013V45.006C134.587 45.79 135.399 46.182 136.463 46.182C137.429 46.182 138.241 45.832 138.927 45.118C139.613 44.404 139.949 43.536 139.949 42.5C139.949 41.478 139.613 40.61 138.927 39.896C138.241 39.182 137.429 38.818 136.463 38.818ZM134.643 44.11C134.223 43.676 134.013 43.144 134.013 42.5C134.013 41.856 134.223 41.324 134.643 40.904C135.063 40.47 135.595 40.26 136.225 40.26C136.855 40.26 137.387 40.47 137.807 40.904C138.227 41.324 138.437 41.856 138.437 42.5C138.437 43.144 138.227 43.676 137.807 44.11C137.387 44.53 136.855 44.74 136.225 44.74C135.595 44.74 135.063 44.53 134.643 44.11ZM148.082 43.144C148.124 42.878 148.138 42.668 148.138 42.514C148.138 41.492 147.802 40.61 147.144 39.896C146.486 39.182 145.646 38.818 144.624 38.818C143.546 38.818 142.65 39.168 141.964 39.882C141.278 40.582 140.928 41.45 140.928 42.5C140.928 43.564 141.278 44.446 141.978 45.146C142.678 45.832 143.602 46.182 144.736 46.182C146.094 46.182 147.116 45.678 147.802 44.656L146.556 43.928C146.15 44.502 145.548 44.796 144.75 44.796C143.588 44.796 142.734 44.208 142.51 43.144H148.082ZM142.495 41.912C142.706 40.848 143.49 40.19 144.61 40.19C145.604 40.19 146.402 40.778 146.612 41.912H142.495ZM150.98 39H149.468V46H150.98V42.472C150.98 41.758 151.19 41.24 151.624 40.932C152.058 40.61 152.562 40.47 153.136 40.512V38.874C152.086 38.874 151.358 39.308 150.98 40.176V39Z" fill="white"/>
</svg>
