<svg width="130" height="128" viewBox="0 0 130 128" fill="none" xmlns="http://www.w3.org/2000/svg">
<path d="M5 118V123H10H42.5824H42.5959L42.6093 123C52.6142 122.946 61.7519 120.569 69.8957 115.783C78.0613 110.985 84.3708 104.212 88.7858 95.5874C93.2444 86.972 95.4085 77.2424 95.4085 66.522V61.5522C95.4085 50.8196 93.2153 41.061 88.7055 32.397C84.2017 23.6951 77.8518 16.8946 69.6744 12.1399C61.5634 7.346 52.4145 5 42.3657 5H10H5V10V118Z" fill="#21809D" stroke="white" stroke-width="10"/>
<path d="M34.5915 118V123H39.5915H72.1739H72.1874L72.2008 123C82.2057 122.946 91.3434 120.569 99.4872 115.783C107.653 110.985 113.962 104.212 118.377 95.5874C122.836 86.972 125 77.2424 125 66.522V61.5522C125 50.8196 122.807 41.061 118.297 32.397C113.793 23.6951 107.443 16.8946 99.266 12.1399C91.155 7.346 82.006 5 71.9572 5H39.5915H34.5915V10V118ZM87.447 39.6281L87.4535 39.6364L87.46 39.6448C90.916 44.0416 93.0376 51.0564 93.0376 61.478V67.1663C92.9438 77.1226 90.7856 84.0063 87.2464 88.4996C83.8835 92.7692 78.9791 95.1236 71.7405 95.1236H66.2649V33.0247H71.9572C79.2561 33.0247 84.1417 35.3861 87.447 39.6281Z" fill="#002A3D" stroke="white" stroke-width="10"/>
</svg>
