<svg width="16" height="17" viewBox="0 0 16 17" fill="none" xmlns="http://www.w3.org/2000/svg">
<path d="M10.3055 4.22222C10.8379 4.33408 11.3664 4.58694 11.75 5C12.1335 5.41306 12.3683 5.98221 12.4722 6.55556M10.6667 1.5C11.7728 1.63233 12.7681 2.20861 13.5556 3.05556C14.343 3.9025 14.8757 4.97565 15 6.16667M14.9996 11.9819V14.0894C15.0026 14.8951 14.33 15.5679 13.5746 15.4945C7.05557 15.5 2 10.005 2.0051 3.03159C1.93708 2.22251 2.5587 1.50082 3.30586 1.50007H5.2668C5.58402 1.49671 5.89155 1.61745 6.13207 1.83977C6.81589 2.47183 7.25572 4.61716 7.08649 5.46999C6.95437 6.13584 6.33111 6.60167 5.90737 7.0571C6.83788 8.81592 8.19282 10.2722 9.82925 11.2723C10.253 10.8169 10.6864 10.147 11.3059 10.005C12.1006 9.82283 14.1055 10.2972 14.6901 11.0387C14.8974 11.3016 15.0076 11.6373 14.9996 11.9819Z" stroke="currentColor" stroke-width="1.5" stroke-linecap="round" stroke-linejoin="round"/>
</svg>
