<svg width="25" height="24" viewBox="0 0 25 24" fill="none" xmlns="http://www.w3.org/2000/svg">
<path d="M13.75 9.80879C13.75 9.39458 13.4142 9.05879 13 9.05879H7C6.58579 9.05879 6.25 9.39458 6.25 9.80879C6.25 10.223 6.58579 10.5588 7 10.5588H13C13.4142 10.5588 13.75 10.223 13.75 9.80879Z" fill="#316A93"/>
<path d="M12.75 12.8088C12.75 12.3946 12.4142 12.0588 12 12.0588H7C6.58579 12.0588 6.25 12.3946 6.25 12.8088C6.25 13.223 6.58579 13.5588 7 13.5588H12C12.4142 13.5588 12.75 13.223 12.75 12.8088Z" fill="#316A93"/>
<path d="M13 15.0588C13.4142 15.0588 13.75 15.3946 13.75 15.8088C13.75 16.223 13.4142 16.5588 13 16.5588H7C6.58579 16.5588 6.25 16.223 6.25 15.8088C6.25 15.3946 6.58579 15.0588 7 15.0588H13Z" fill="#316A93"/>
<path fill-rule="evenodd" clip-rule="evenodd" d="M6.25 21.8088H19.25C20.7688 21.8088 22 20.5776 22 19.0588V13.5588C22 13.1446 21.6642 12.8088 21.25 12.8088H18V5.00199C18 3.57859 16.3911 2.75062 15.2328 3.57796L15.0578 3.70299C14.2773 4.26048 13.2201 4.25861 12.4359 3.6985C11.1321 2.76717 9.36794 2.76717 8.06407 3.6985C7.27992 4.25861 6.2227 4.26048 5.44221 3.70299L5.26717 3.57796C4.1089 2.75062 2.5 3.57859 2.5 5.00199V18.0588C2.5 20.1299 4.17893 21.8088 6.25 21.8088ZM8.93593 4.9191C9.71825 4.3603 10.7818 4.3603 11.5641 4.9191C12.8661 5.84912 14.6239 5.85623 15.9296 4.92359L16.1047 4.79856C16.2702 4.68036 16.5 4.79865 16.5 5.00199V19.0588C16.5 19.5089 16.6081 19.9338 16.7999 20.3088H6.25C5.00736 20.3088 4 19.3014 4 18.0588V5.00199C4 4.79865 4.22984 4.68036 4.39531 4.79856L4.57036 4.92359C5.87605 5.85623 7.6339 5.84912 8.93593 4.9191ZM18 19.0588V14.3088H20.5V19.0588C20.5 19.7492 19.9404 20.3088 19.25 20.3088C18.5596 20.3088 18 19.7492 18 19.0588Z" fill="#316A93"/>
</svg>
