<svg width="25" height="24" viewBox="0 0 25 24" fill="none" xmlns="http://www.w3.org/2000/svg">
<path d="M5.5 3V2.25C5.08579 2.25 4.75 2.58579 4.75 3H5.5ZM19.5 21V21.75C19.9142 21.75 20.25 21.4142 20.25 21H19.5ZM5.5 21H4.75C4.75 21.4142 5.08579 21.75 5.5 21.75V21ZM14.5 3L15.0303 2.46967C14.8897 2.32902 14.6989 2.25 14.5 2.25V3ZM19.5 8H20.25C20.25 7.80109 20.171 7.61032 20.0303 7.46967L19.5 8ZM13.25 11C13.25 10.5858 12.9142 10.25 12.5 10.25C12.0858 10.25 11.75 10.5858 11.75 11H13.25ZM11.75 17C11.75 17.4142 12.0858 17.75 12.5 17.75C12.9142 17.75 13.25 17.4142 13.25 17H11.75ZM9.5 13.25C9.08579 13.25 8.75 13.5858 8.75 14C8.75 14.4142 9.08579 14.75 9.5 14.75V13.25ZM15.5 14.75C15.9142 14.75 16.25 14.4142 16.25 14C16.25 13.5858 15.9142 13.25 15.5 13.25V14.75ZM19.5 20.25H5.5V21.75H19.5V20.25ZM6.25 21V3H4.75V21H6.25ZM5.5 3.75H14.5V2.25H5.5V3.75ZM18.75 8V21H20.25V8H18.75ZM13.9697 3.53033L18.9697 8.53033L20.0303 7.46967L15.0303 2.46967L13.9697 3.53033ZM12.75 3V7H14.25V3H12.75ZM15.5 9.75H19.5V8.25H15.5V9.75ZM12.75 7C12.75 8.51878 13.9812 9.75 15.5 9.75V8.25C14.8096 8.25 14.25 7.69036 14.25 7H12.75ZM11.75 11V17H13.25V11H11.75ZM9.5 14.75H15.5V13.25H9.5V14.75Z" fill="#316A93"/>
</svg>
