<svg width="25" height="24" viewBox="0 0 25 24" fill="none" xmlns="http://www.w3.org/2000/svg">
<path d="M8.58579 14.4142L9.11612 14.9445L9.11612 14.9445L8.58579 14.4142ZM11.4142 14.4142L10.8839 14.9445L10.8839 14.9445L11.4142 14.4142ZM11.5858 14.5858L12.1161 14.0555L12.1161 14.0555L11.5858 14.5858ZM14.4142 14.5858L13.8839 14.0555L13.8839 14.0555L14.4142 14.5858ZM16.5858 12.4142L16.0555 11.8839L16.0555 11.8839L16.5858 12.4142ZM19.4142 12.4142L19.9445 11.8839L19.9445 11.8839L19.4142 12.4142ZM6 4.75H20V3.25H6V4.75ZM20.25 5V19H21.75V5H20.25ZM20 19.25H6V20.75H20V19.25ZM5.75 19V5H4.25V19H5.75ZM6 19.25C5.86193 19.25 5.75 19.1381 5.75 19H4.25C4.25 19.9665 5.0335 20.75 6 20.75V19.25ZM20.25 19C20.25 19.1381 20.1381 19.25 20 19.25V20.75C20.9665 20.75 21.75 19.9665 21.75 19H20.25ZM20 4.75C20.1381 4.75 20.25 4.86193 20.25 5H21.75C21.75 4.0335 20.9665 3.25 20 3.25V4.75ZM6 3.25C5.0335 3.25 4.25 4.0335 4.25 5H5.75C5.75 4.86193 5.86193 4.75 6 4.75V3.25ZM5.53033 18.5303L9.11612 14.9445L8.05546 13.8839L4.46967 17.4697L5.53033 18.5303ZM10.8839 14.9445L11.0555 15.1161L12.1161 14.0555L11.9445 13.8839L10.8839 14.9445ZM14.9445 15.1161L17.1161 12.9445L16.0555 11.8839L13.8839 14.0555L14.9445 15.1161ZM18.8839 12.9445L20.4697 14.5303L21.5303 13.4697L19.9445 11.8839L18.8839 12.9445ZM17.1161 12.9445C17.6043 12.4564 18.3957 12.4564 18.8839 12.9445L19.9445 11.8839C18.8706 10.8099 17.1294 10.8099 16.0555 11.8839L17.1161 12.9445ZM11.0555 15.1161C12.1294 16.1901 13.8706 16.1901 14.9445 15.1161L13.8839 14.0555C13.3957 14.5436 12.6043 14.5436 12.1161 14.0555L11.0555 15.1161ZM9.11612 14.9445C9.60427 14.4564 10.3957 14.4564 10.8839 14.9445L11.9445 13.8839C10.8706 12.8099 9.1294 12.8099 8.05546 13.8839L9.11612 14.9445ZM10.941 8.846C10.941 9.45079 10.4498 9.942 9.845 9.942V11.442C11.2782 11.442 12.441 10.2792 12.441 8.846H10.941ZM9.845 9.942C9.24148 9.942 8.75 9.45105 8.75 8.846H7.25C7.25 10.2789 8.41252 11.442 9.845 11.442V9.942ZM8.75 8.846C8.75 8.24095 9.24148 7.75 9.845 7.75V6.25C8.41252 6.25 7.25 7.41305 7.25 8.846H8.75ZM9.845 7.75C10.4498 7.75 10.941 8.24121 10.941 8.846H12.441C12.441 7.41279 11.2782 6.25 9.845 6.25V7.75Z" fill="#316A93"/>
</svg>
